<?xml version="1.0" encoding="UTF-8" standalone="yes"?>
<svg version="1.2" width="1024" height="1024" baseProfile="tiny-ps" xmlns="http://www.w3.org/2000/svg">
  <title>bimi-svg-tiny-12-ps</title>
  <path d="M0 0 C0.64018377 -0.00145335 1.28036755 -0.0029067 1.93995083 -0.0044041 C4.11450557 -0.0080917 6.28899141 -0.00456347 8.4635458 -0.0011425 C10.03089477 -0.00229515 11.59824347 -0.00388418 13.1655916 -0.00587404 C17.50579239 -0.01008302 21.84597138 -0.00797484 26.18617229 -0.00488985 C30.88025802 -0.0026228 35.57433998 -0.0060753 40.26842499 -0.00879478 C49.5530688 -0.01322727 58.83770465 -0.01216751 68.12234877 -0.00932555 C75.78499526 -0.00711066 83.44763911 -0.00706038 91.11028576 -0.00847816 C92.20900324 -0.0086804 93.30772073 -0.00888264 94.43973269 -0.00909101 C96.67726175 -0.00951157 98.91479081 -0.00993624 101.15231988 -0.01036493 C123.69586804 -0.01438924 146.23941134 -0.01086362 168.78295875 -0.00472391 C184.79567876 -0.00039132 200.80839791 0.00215993 216.82111847 0.00326452 C326.51288831 0.01107056 436.20422422 0.07899239 599.91018581 0.62584114 C600.70217099 0.6288027 601.49415618 0.63176427 602.31014091 0.63481557 C641.86438951 0.78293037 681.41857171 0.94515585 720.97268581 1.12584114 C719.7090329 3.66906854 718.44364845 6.21140986 717.17727566 8.75328255 C716.64607365 9.82305084 716.64607365 9.82305084 716.10414028 10.91443062 C713.12498287 16.88880039 709.928706 22.71524774 706.59768581 28.50084114 C705.46303529 30.49011888 704.32892587 32.47970535 703.19534206 34.46959114 C702.37187283 35.91205208 702.37187283 35.91205208 701.53176785 37.38365364 C699.33870389 41.24091865 697.18316169 45.11833906 695.03518581 49.00084114 C686.2006697 64.94256564 677.30048343 80.84573158 668.23538113 96.65757942 C665.06829335 102.18884625 661.93920243 107.73949172 658.84768581 113.31334114 C658.44767361 114.03392708 658.0476614 114.75451302 657.63552761 115.49693489 C655.4884136 119.37121716 653.35593535 123.25311553 651.23440456 127.14146614 C650.78274929 127.96493538 650.33109402 128.78840462 649.86575222 129.63682747 C649.00036941 131.2149999 648.13913479 132.79545652 647.28274441 134.37852669 C646.698074 135.4426075 646.698074 135.4426075 646.10159206 136.52818489 C645.76200466 137.15201057 645.42241726 137.77583626 645.07253933 138.41856575 C643.77384382 140.43449865 642.91366108 141.67176659 640.97268581 143.12584114 C638.44048716 143.41715082 636.15494513 143.52312332 633.62257767 143.49498463 C632.8644131 143.49844616 632.10624853 143.50190769 631.32510927 143.50547412 C628.76390241 143.51346625 626.20325214 143.49991399 623.64207363 143.48660469 C621.79569735 143.48791194 619.94932161 143.49053686 618.10294884 143.49437219 C613.01315272 143.501105 607.92354468 143.48904618 602.83377254 143.474038 C597.35115638 143.46112207 591.86855143 143.46546395 586.38592434 143.46774483 C576.88156323 143.46932038 567.37726374 143.45988174 557.87291813 143.44303131 C544.1311194 143.41868404 530.38935057 143.41084042 516.6475326 143.40706734 C494.35412701 143.40049613 472.06075022 143.38054255 449.76736355 143.3521595 C428.10720904 143.32461445 406.44706331 143.30335957 384.7868948 143.29063606 C384.11944638 143.29024148 383.45199797 143.28984691 382.76432385 143.28944037 C375.39656866 143.28509239 368.02881339 143.28091684 360.66105807 143.27681196 C305.09824461 143.24569523 249.53546678 143.19284125 193.97268581 143.12584114 C185.80571903 175.79370827 192.31981445 210.45436374 191.97268581 244.12584114 C372.81268581 244.12584114 553.65268581 244.12584114 739.97268581 244.12584114 C730.79905469 262.47310339 730.79905469 262.47310339 727.34768581 268.56334114 C726.9385696 269.29319221 726.52945339 270.02304329 726.10793972 270.77501106 C724.73276615 273.22712473 723.35264316 275.67641685 721.97268581 278.12584114 C719.76223947 282.06215733 717.55474366 286.00012423 715.34768581 289.93834114 C714.7632571 290.98054817 714.17882839 292.0227552 713.57668972 293.09654427 C707.88476952 303.2583905 702.26025739 313.45689569 696.64013577 323.65854073 C693.42898894 329.48733869 690.20977044 335.31141134 686.97268581 341.12584114 C681.96652642 350.11946471 676.99846946 359.13409413 672.03127956 368.14927864 C666.70025657 377.82050824 661.3358486 387.47214812 655.97268581 397.12584114 C437.51268581 397.45584114 219.05268581 397.78584114 -6.02731419 398.12584114 C-6.19231419 340.41709114 -6.35731419 282.70834114 -6.52731419 223.25084114 C-6.57952122 205.09971321 -6.63172825 186.94858528 -6.68551731 168.24742317 C-6.74899387 145.90294075 -6.74899387 145.90294075 -6.77865696 135.40779305 C-6.79919995 128.15380455 -6.82006768 120.89981708 -6.84115696 113.64583015 C-6.89689094 94.43954678 -6.95061289 75.23326443 -6.99541283 56.02695203 C-7.01417456 48.04612678 -7.03675183 40.06533547 -7.06486464 32.08453619 C-7.07849047 27.98440622 -7.08832133 23.88427551 -7.09670258 19.78413177 C-7.10115256 18.00921604 -7.10730287 16.23430358 -7.11532784 14.45940042 C-7.12560712 12.15181625 -7.13002788 9.84430268 -7.13266087 7.5366993 C-7.13650539 6.30273352 -7.14034992 5.06876774 -7.14431095 3.79740906 C-6.92815342 -1.13844984 -4.35614425 0.00061582 0 0 Z " fill="#0A2C60" transform="translate(156.0273141860962,403.87415885925293)"/>
  <path d="M0 0 C1.60592791 -0.00218016 1.60592791 -0.00218016 3.24429882 -0.00440437 C6.8381229 -0.0080589 10.43190443 -0.00458045 14.02572823 -0.0011425 C16.62570693 -0.00229452 19.22568548 -0.0038826 21.82566369 -0.00586975 C27.48169193 -0.00947952 33.13771063 -0.00937304 38.79373932 -0.00682259 C47.20413252 -0.00304041 55.61451766 -0.00497365 64.0249108 -0.00803089 C79.04408341 -0.01329726 94.06325177 -0.01284009 109.08242478 -0.00995198 C122.22211734 -0.00743763 135.36180833 -0.00677917 148.50150108 -0.00797462 C149.37267304 -0.00805101 150.243845 -0.00812739 151.14141611 -0.00820609 C154.67761295 -0.00851742 158.2138098 -0.00883582 161.75000664 -0.00916586 C194.92365002 -0.01222512 228.09729068 -0.00945069 261.27093364 -0.00406896 C290.76351025 0.00067918 320.25608255 0.00024995 349.74865913 -0.00452995 C382.87021835 -0.00988004 415.99177518 -0.01201068 449.11333477 -0.00891769 C452.64127294 -0.00859696 456.16921111 -0.00828412 459.69714928 -0.00797462 C460.56584408 -0.00789555 461.43453888 -0.00781647 462.32955777 -0.007735 C475.46727397 -0.00659589 488.60498844 -0.00793078 501.74270439 -0.01045418 C516.67106457 -0.01330719 531.59941982 -0.01261187 546.52777939 -0.00717343 C554.89020208 -0.00422778 563.25261411 -0.00405895 571.61503654 -0.00781961 C577.84327315 -0.01031252 584.07149706 -0.00762717 590.2997321 -0.00284503 C592.83114019 -0.0017204 595.36254969 -0.00231303 597.89395688 -0.00472082 C601.31292641 -0.00772545 604.7318363 -0.00467961 608.15080261 0 C609.15239509 -0.00234117 610.15398756 -0.00468233 611.18593132 -0.00709444 C612.08999553 -0.00459092 612.99405973 -0.00208741 613.92551982 0.00049198 C614.70831245 0.00055974 615.49110507 0.00062749 616.29761868 0.00069731 C618.19787788 0.12584114 618.19787788 0.12584114 620.19787788 1.12584114 C618.66867386 6.83059627 615.78501736 11.27136983 612.63537788 16.18834114 C606.29561183 26.24495931 600.25979181 36.45857291 594.28747749 46.73546028 C590.32774465 53.54136134 586.28228839 60.28599504 582.13806343 66.98179817 C579.05192514 71.98284119 576.03042673 77.02220144 573.01037788 82.06334114 C572.36165718 83.14542854 571.71293648 84.22751595 571.04455757 85.34239388 C566.47524351 92.97261263 561.93695744 100.62064879 557.41858101 108.28111458 C552.72706063 116.23493149 548.02199003 124.18065321 543.3100605 132.12239265 C542.44801215 133.57559632 541.58627386 135.02898396 540.72485542 136.48256111 C539.51483005 138.52428055 538.30375484 140.5653736 537.09240913 142.60630989 C536.54641815 143.52822624 536.54641815 143.52822624 535.98939705 144.46876717 C534.44674992 147.06550261 532.87390798 149.61179599 531.19787788 152.12584114 C529.29120665 152.49985464 529.29120665 152.49985464 526.90990245 152.49843663 C525.54858132 152.50854945 525.54858132 152.50854945 524.15975875 152.51886657 C523.15427515 152.51098553 522.14879155 152.50310449 521.11283875 152.49498463 C520.04685564 152.49844616 518.98087252 152.50190769 517.8825869 152.50547412 C514.26829831 152.51348947 510.65440123 152.49989439 507.04013252 152.48660469 C504.43978122 152.48791146 501.8394303 152.4905355 499.2390815 152.49437219 C493.56367179 152.50060729 487.88835619 152.49563859 482.21295738 152.48345757 C473.77379077 152.46539485 465.33468385 152.46444619 456.89550143 152.46708353 C442.70131175 152.47103071 428.50716388 152.46098029 414.31298637 152.44303131 C400.25314185 152.42529766 386.19331472 152.413737 372.13345909 152.41047287 C371.2601981 152.41026665 370.38693711 152.41006043 369.48721366 152.40984796 C365.0526033 152.408833 360.61799292 152.40792884 356.18338253 152.40706734 C324.74956313 152.40076129 293.31576649 152.3805358 261.88195992 152.3521595 C231.3389924 152.32461916 200.79603111 152.30336198 170.25305367 152.29063606 C168.84156541 152.29004419 168.84156541 152.29004419 167.40156223 152.28944037 C157.95197957 152.28548491 148.50239685 152.28165745 139.0528141 152.27792379 C119.80186213 152.27031457 100.55091056 152.26185081 81.29995918 152.25287056 C80.41477574 152.25245869 79.5295923 152.25204682 78.61758512 152.25162247 C19.47767322 152.22400709 -39.66222599 152.17646994 -98.80212212 152.12584114 C-97.54501583 149.60758406 -96.28746262 147.08955177 -95.02966118 144.57164192 C-94.67860313 143.86828209 -94.32754509 143.16492226 -93.96584892 142.44024849 C-90.54779357 135.59945551 -87.06504492 128.79346365 -83.55212212 122.00084114 C-83.07139748 121.07057106 -83.07139748 121.07057106 -82.58096123 120.12150764 C-77.93557158 111.13957263 -73.17284757 102.22949459 -68.29137993 93.37339973 C-64.34276987 86.18439725 -60.55827273 78.91698154 -56.80212212 71.62584114 C-52.1082644 62.5148001 -47.30534637 53.479096 -42.35656548 44.50425911 C-37.60918457 35.85783741 -33.09139973 27.09520394 -28.60876274 18.30943489 C-27.03098532 15.23469753 -25.41963454 12.17979723 -23.80212212 9.12584114 C-23.39332817 8.29149544 -22.98453423 7.45714973 -22.56335258 6.59752083 C-22.17679497 5.87210091 -21.79023735 5.14668098 -21.39196587 4.39927864 C-21.07993217 3.7823011 -20.76789848 3.16532356 -20.44640923 2.52964973 C-15.80753087 -1.43078836 -5.81466529 -0.01378478 0 0 Z " fill="#FE5700" transform="translate(247.80212211608887,167.87415885925293)"/>
  <path d="M0 0 C149.16 0 298.32 0 452 0 C451.67 0.66 451.34 1.32 451 2 C303.49 2 155.98 2 4 2 C-4.16696678 34.66786712 2.34712863 69.3285226 2 103 C182.84 103 363.68 103 550 103 C549.67 103.99 549.34 104.98 549 106 C367.83 105.67 186.66 105.34 0 105 C0 70.35 0 35.7 0 0 Z " fill="#162D57" transform="translate(346,545)"/>
  <path d="M0 0 C0.64018377 -0.00145335 1.28036755 -0.0029067 1.93995083 -0.0044041 C4.11450557 -0.0080917 6.28899141 -0.00456347 8.4635458 -0.0011425 C10.03089477 -0.00229515 11.59824347 -0.00388418 13.1655916 -0.00587404 C17.50579239 -0.01008302 21.84597138 -0.00797484 26.18617229 -0.00488985 C30.88025802 -0.0026228 35.57433998 -0.0060753 40.26842499 -0.00879478 C49.5530688 -0.01322727 58.83770465 -0.01216751 68.12234877 -0.00932555 C75.78499526 -0.00711066 83.44763911 -0.00706038 91.11028576 -0.00847816 C92.20900324 -0.0086804 93.30772073 -0.00888264 94.43973269 -0.00909101 C96.67726175 -0.00951157 98.91479081 -0.00993624 101.15231988 -0.01036493 C123.69586804 -0.01438924 146.23941134 -0.01086362 168.78295875 -0.00472391 C184.79567876 -0.00039132 200.80839791 0.00215993 216.82111847 0.00326452 C326.51288831 0.01107056 436.20422422 0.07899239 599.91018581 0.62584114 C600.70217099 0.6288027 601.49415618 0.63176427 602.31014091 0.63481557 C641.86438951 0.78293037 681.41857171 0.94515585 720.97268581 1.12584114 C720.97268581 1.45584114 720.97268581 1.78584114 720.97268581 2.12584114 C481.39268581 2.12584114 241.81268581 2.12584114 -5.02731419 2.12584114 C-5.02731419 132.14584114 -5.02731419 262.16584114 -5.02731419 396.12584114 C213.10268581 396.12584114 431.23268581 396.12584114 655.97268581 396.12584114 C655.97268581 396.45584114 655.97268581 396.78584114 655.97268581 397.12584114 C437.51268581 397.45584114 219.05268581 397.78584114 -6.02731419 398.12584114 C-6.19231419 340.41709114 -6.35731419 282.70834114 -6.52731419 223.25084114 C-6.57952122 205.09971321 -6.63172825 186.94858528 -6.68551731 168.24742317 C-6.74899387 145.90294075 -6.74899387 145.90294075 -6.77865696 135.40779305 C-6.79919995 128.15380455 -6.82006768 120.89981708 -6.84115696 113.64583015 C-6.89689094 94.43954678 -6.95061289 75.23326443 -6.99541283 56.02695203 C-7.01417456 48.04612678 -7.03675183 40.06533547 -7.06486464 32.08453619 C-7.07849047 27.98440622 -7.08832133 23.88427551 -7.09670258 19.78413177 C-7.10115256 18.00921604 -7.10730287 16.23430358 -7.11532784 14.45940042 C-7.12560712 12.15181625 -7.13002788 9.84430268 -7.13266087 7.5366993 C-7.13650539 6.30273352 -7.14034992 5.06876774 -7.14431095 3.79740906 C-6.92815342 -1.13844984 -4.35614425 0.00061582 0 0 Z " fill="#162C59" transform="translate(156.0273141860962,403.87415885925293)"/>
  <path d="M0 0 C179.85 0 359.7 0 545 0 C546 3 546 3 544.671875 6.1015625 C544.04189186 7.28178407 543.40079314 8.45612448 542.75 9.625 C542.28013672 10.5221875 542.28013672 10.5221875 541.80078125 11.4375 C539.38262529 15.87245824 539.38262529 15.87245824 536 17 C538 12 540 7 542 2 C273.71 1.505 273.71 1.505 0 1 C0 0.67 0 0.34 0 0 Z " fill="#072251" transform="translate(348,650)"/>
  <path d="M0 0 C24.75 0 49.5 0 75 0 C75 0.33 75 0.66 75 1 C73.72666054 1.01213028 73.72666054 1.01213028 72.42759705 1.02450562 C64.40935114 1.10259703 56.39126982 1.18993126 48.37323666 1.28752708 C44.25154391 1.33737371 40.12987536 1.38370433 36.00805664 1.421875 C32.02680834 1.45887535 28.04576832 1.50527438 24.06469917 1.55806351 C22.54937982 1.57652937 21.03401594 1.59166585 19.51862907 1.60334396 C17.38842527 1.62034107 15.25869041 1.64940624 13.12866211 1.68115234 C11.9184288 1.69447601 10.7081955 1.70779968 9.46128845 1.7215271 C5.68116135 2.0256517 2.59946743 2.84505316 -1 4 C-0.67 2.68 -0.34 1.36 0 0 Z " fill="#FD4700" transform="translate(228,170)"/>
  <path d="M0 0 C1 3 1 3 -0.66015625 6.625 C-1.45067161 8.08892356 -2.25211206 9.5469831 -3.0625 11 C-3.4742749 11.75659912 -3.8860498 12.51319824 -4.31030273 13.29272461 C-5.531669 15.53328518 -6.76544062 17.76669024 -8 20 C-8.64718969 21.18806422 -9.29316742 22.37679009 -9.9375 23.56640625 C-11.28382654 26.04869581 -12.63768461 28.52646265 -14 31 C-16.64 30.67 -19.28 30.34 -22 30 C-22 29.67 -22 29.34 -22 29 C-20.38230713 28.68591187 -20.38230713 28.68591187 -18.73193359 28.36547852 C-14.17861653 26.69946371 -13.4444462 25.40528067 -11.2890625 21.15234375 C-10.68449219 19.99025391 -10.07992187 18.82816406 -9.45703125 17.63085938 C-8.84565605 16.40008612 -8.23498701 15.16896185 -7.625 13.9375 C-6.99307861 12.70135034 -6.3589841 11.46630902 -5.72265625 10.23242188 C-4.56637325 7.98353884 -3.42031511 5.72935005 -2.28759766 3.46850586 C-1 1 -1 1 0 0 Z " fill="#0D2148" transform="translate(813,515)"/>
  <path d="M0 0 C0.95308021 2.54726375 1.1169796 3.68651756 0.15136719 6.27416992 C-0.29561523 7.08474854 -0.74259766 7.89532715 -1.203125 8.73046875 C-1.68910156 9.61541016 -2.17507813 10.50035156 -2.67578125 11.41210938 C-3.19527344 12.32798828 -3.71476563 13.24386719 -4.25 14.1875 C-4.75402344 15.11498047 -5.25804687 16.04246094 -5.77734375 16.99804688 C-9.60747277 23.86915759 -9.60747277 23.86915759 -13 25 C-11.68706289 21.55688942 -10.1856658 18.35788604 -8.3984375 15.13671875 C-7.66367187 13.80737305 -7.66367187 13.80737305 -6.9140625 12.45117188 C-6.40617188 11.53916016 -5.89828125 10.62714844 -5.375 9.6875 C-4.859375 8.75615234 -4.34375 7.82480469 -3.8125 6.86523438 C-2.54426483 4.57536531 -1.27335838 2.28702285 0 0 Z " fill="#0D1F45" transform="translate(865,422)"/>
  <path d="M0 0 C0.66 0 1.32 0 2 0 C0.49299203 5.34302824 -1.78037885 10.46195831 -5 15 C-5.99 15.33 -6.98 15.66 -8 16 C-6.57250019 12.20950293 -4.83763458 8.72877544 -2.875 5.1875 C-2.33617187 4.21167969 -1.79734375 3.23585938 -1.2421875 2.23046875 C-0.83226562 1.49441406 -0.42234375 0.75835937 0 0 Z " fill="#0D1F45" transform="translate(833,479)"/>
  <path d="M0 0 C1.15811981 2.83470023 1.05503177 3.86300189 -0.109375 6.76171875 C-0.65078125 7.72722656 -1.1921875 8.69273437 -1.75 9.6875 C-2.28109375 10.66074219 -2.8121875 11.63398437 -3.359375 12.63671875 C-5 15 -5 15 -8 16 C-6.57250019 12.20950293 -4.83763458 8.72877544 -2.875 5.1875 C-2.33617187 4.21167969 -1.79734375 3.23585938 -1.2421875 2.23046875 C-0.83226562 1.49441406 -0.42234375 0.75835938 0 0 Z " fill="#0E224B" transform="translate(843,739)"/>
  <path d="M0 0 C0.97226335 2.59072612 1.11611108 3.69699083 0.109375 6.32421875 C-0.33921875 7.10410156 -0.7878125 7.88398437 -1.25 8.6875 C-1.68828125 9.47511719 -2.1265625 10.26273438 -2.578125 11.07421875 C-4 13 -4 13 -7 14 C-5.23570801 9.02790438 -2.6060834 4.56561939 0 0 Z " fill="#10254F" transform="translate(831,761)"/>
  <path d="M0 0 C0.99 0.33 1.98 0.66 3 1 C2.07425608 2.81853256 1.13401005 4.62968883 0.1875 6.4375 C-0.59560547 7.95150391 -0.59560547 7.95150391 -1.39453125 9.49609375 C-3 12 -3 12 -6 13 C-4.31326082 8.50202887 -2.18326108 4.27113698 0 0 Z " fill="#0F1E41" transform="translate(873,407)"/>
  <path d="M0 0 C1 3 1 3 -0.21484375 5.69921875 C-0.78332031 6.68535156 -1.35179687 7.67148437 -1.9375 8.6875 C-2.50339844 9.68136719 -3.06929687 10.67523438 -3.65234375 11.69921875 C-4.31943359 12.83810547 -4.31943359 12.83810547 -5 14 C-5.66 14 -6.32 14 -7 14 C-5.23570801 9.02790438 -2.6060834 4.56561939 0 0 Z " fill="#0C2047" transform="translate(822,499)"/>
  <path d="M0 0 C0.97226335 2.59072612 1.11611108 3.69699083 0.109375 6.32421875 C-0.33921875 7.10410156 -0.7878125 7.88398438 -1.25 8.6875 C-1.68828125 9.47511719 -2.1265625 10.26273437 -2.578125 11.07421875 C-4 13 -4 13 -7 14 C-5.23570801 9.02790438 -2.6060834 4.56561939 0 0 Z " fill="#0C1E44" transform="translate(850,449)"/>
  <path d="M0 0 C0.75 1.5625 0.75 1.5625 1 4 C-0.02332869 6.54719859 -1.27272296 8.86333587 -3 11 C-3.99 11.33 -4.98 11.66 -6 12 C-4.43358249 7.69235185 -2.31663844 3.93828536 0 0 Z " fill="#0B1E43" transform="translate(841,465)"/>
  <path d="M0 0 C0.75 1.5625 0.75 1.5625 1 4 C-0.13084437 6.50286409 -1.52139516 8.67007722 -3 11 C-3.66 11 -4.32 11 -5 11 C-3.77472971 6.94718288 -2.30119506 3.55639236 0 0 Z " fill="#0D1E45" transform="translate(882,669)"/>
  <path d="M0 0 C0.99 0.33 1.98 0.66 3 1 C2.3125 3.375 2.3125 3.375 1 6 C-1.625 7.3125 -1.625 7.3125 -4 8 C-2.87548273 5.0280615 -1.77706209 2.66559313 0 0 Z " fill="#113266" transform="translate(844,735)"/>
  <path d="M0 0 C0.99 0.495 0.99 0.495 2 1 C1.67 1.99 1.34 2.98 1 4 C0.67 2.68 0.34 1.36 0 0 Z " fill="#F75606" transform="translate(208,201)"/>
  <path d="" fill="#27477D" transform="translate(0,0)"/>
  <path d="" fill="#234478" transform="translate(0,0)"/>
  <path d="" fill="#1B3768" transform="translate(0,0)"/>
  <path d="" fill="#25375C" transform="translate(0,0)"/>
  <path d="" fill="#F45B0A" transform="translate(0,0)"/>
  <path d="" fill="#F95A08" transform="translate(0,0)"/>
  <path d="" fill="#101E32" transform="translate(0,0)"/>
  <path d="" fill="#2D497C" transform="translate(0,0)"/>
  <path d="" fill="#2A4772" transform="translate(0,0)"/>
  <path d="" fill="#2C4B7C" transform="translate(0,0)"/>
  <path d="" fill="#2B487D" transform="translate(0,0)"/>
  <path d="" fill="#25467A" transform="translate(0,0)"/>
  <path d="" fill="#224477" transform="translate(0,0)"/>
  <path d="" fill="#25477C" transform="translate(0,0)"/>
  <path d="" fill="#234578" transform="translate(0,0)"/>
  <path d="" fill="#26467B" transform="translate(0,0)"/>
  <path d="" fill="#25487C" transform="translate(0,0)"/>
  <path d="" fill="#26477C" transform="translate(0,0)"/>
  <path d="" fill="#26497D" transform="translate(0,0)"/>
  <path d="" fill="#29487C" transform="translate(0,0)"/>
  <path d="" fill="#27477F" transform="translate(0,0)"/>
  <path d="" fill="#224478" transform="translate(0,0)"/>
  <path d="" fill="#29487E" transform="translate(0,0)"/>
  <path d="" fill="#244378" transform="translate(0,0)"/>
  <path d="" fill="#27497E" transform="translate(0,0)"/>
  <path d="" fill="#214377" transform="translate(0,0)"/>
  <path d="" fill="#25467C" transform="translate(0,0)"/>
  <path d="" fill="#214378" transform="translate(0,0)"/>
  <path d="" fill="#224479" transform="translate(0,0)"/>
  <path d="" fill="#2B497E" transform="translate(0,0)"/>
  <path d="" fill="#22447A" transform="translate(0,0)"/>
  <path d="" fill="#28477D" transform="translate(0,0)"/>
  <path d="" fill="#26467B" transform="translate(0,0)"/>
  <path d="" fill="#234578" transform="translate(0,0)"/>
  <path d="" fill="#24467B" transform="translate(0,0)"/>
  <path d="" fill="#23467A" transform="translate(0,0)"/>
  <path d="" fill="#24467A" transform="translate(0,0)"/>
  <path d="" fill="#22457B" transform="translate(0,0)"/>
  <path d="" fill="#28487A" transform="translate(0,0)"/>
  <path d="" fill="#234276" transform="translate(0,0)"/>
  <path d="" fill="#234478" transform="translate(0,0)"/>
  <path d="" fill="#214275" transform="translate(0,0)"/>
  <path d="" fill="#28467D" transform="translate(0,0)"/>
  <path d="" fill="#27477D" transform="translate(0,0)"/>
  <path d="" fill="#214073" transform="translate(0,0)"/>
  <path d="" fill="#214378" transform="translate(0,0)"/>
  <path d="" fill="#1F4275" transform="translate(0,0)"/>
  <path d="" fill="#203F73" transform="translate(0,0)"/>
  <path d="" fill="#1F4073" transform="translate(0,0)"/>
  <path d="" fill="#1F4073" transform="translate(0,0)"/>
  <path d="" fill="#204275" transform="translate(0,0)"/>
  <path d="" fill="#1E4072" transform="translate(0,0)"/>
  <path d="" fill="#204275" transform="translate(0,0)"/>
  <path d="" fill="#1C3D71" transform="translate(0,0)"/>
  <path d="" fill="#204275" transform="translate(0,0)"/>
  <path d="" fill="#1D3E71" transform="translate(0,0)"/>
  <path d="" fill="#1F4075" transform="translate(0,0)"/>
  <path d="" fill="#1D3E70" transform="translate(0,0)"/>
  <path d="" fill="#1F3F71" transform="translate(0,0)"/>
  <path d="" fill="#1C3D70" transform="translate(0,0)"/>
  <path d="" fill="#1B3B70" transform="translate(0,0)"/>
  <path d="" fill="#1D386B" transform="translate(0,0)"/>
  <path d="" fill="#1C3D6F" transform="translate(0,0)"/>
  <path d="" fill="#1C3A6D" transform="translate(0,0)"/>
  <path d="" fill="#1B3A6D" transform="translate(0,0)"/>
  <path d="" fill="#1C396C" transform="translate(0,0)"/>
  <path d="" fill="#1A3B6B" transform="translate(0,0)"/>
  <path d="" fill="#1C3A6C" transform="translate(0,0)"/>
  <path d="" fill="#1C3A6A" transform="translate(0,0)"/>
  <path d="" fill="#1D386A" transform="translate(0,0)"/>
  <path d="" fill="#1B3A6A" transform="translate(0,0)"/>
  <path d="" fill="#293458" transform="translate(0,0)"/>
  <path d="" fill="#2A3960" transform="translate(0,0)"/>
  <path d="" fill="#2E3B62" transform="translate(0,0)"/>
  <path d="" fill="#313D64" transform="translate(0,0)"/>
  <path d="" fill="#303D64" transform="translate(0,0)"/>
  <path d="" fill="#313C62" transform="translate(0,0)"/>
  <path d="" fill="#323C63" transform="translate(0,0)"/>
  <path d="" fill="#313B64" transform="translate(0,0)"/>
  <path d="" fill="#313D63" transform="translate(0,0)"/>
  <path d="" fill="#323D64" transform="translate(0,0)"/>
  <path d="" fill="#323D64" transform="translate(0,0)"/>
  <path d="" fill="#303E64" transform="translate(0,0)"/>
  <path d="" fill="#313D65" transform="translate(0,0)"/>
  <path d="" fill="#313D63" transform="translate(0,0)"/>
  <path d="" fill="#334063" transform="translate(0,0)"/>
  <path d="" fill="#C34E1D" transform="translate(0,0)"/>
  <path d="" fill="#E95E17" transform="translate(0,0)"/>
  <path d="" fill="#D75212" transform="translate(0,0)"/>
  <path d="" fill="#F25D0F" transform="translate(0,0)"/>
  <path d="" fill="#F15C0D" transform="translate(0,0)"/>
  <path d="" fill="#F55E0E" transform="translate(0,0)"/>
  <path d="" fill="#F35E07" transform="translate(0,0)"/>
  <path d="" fill="#F15F0C" transform="translate(0,0)"/>
  <path d="" fill="#F75E05" transform="translate(0,0)"/>
  <path d="" fill="#FB5E08" transform="translate(0,0)"/>
  <path d="" fill="#FA5808" transform="translate(0,0)"/>
  <path d="" fill="#FA5906" transform="translate(0,0)"/>
  <path d="" fill="#F05905" transform="translate(0,0)"/>
  <path d="" fill="#F95706" transform="translate(0,0)"/>
  <path d="" fill="#F45608" transform="translate(0,0)"/>
  <path d="" fill="#E04C06" transform="translate(0,0)"/>
</svg>